<svg version="1.1" xmlns="http://www.w3.org/2000/svg" xmlns:xlink="http://www.w3.org/1999/xlink" width="360" height="360" viewBox="0,0,360,360"><defs><linearGradient x1="60" y1="180" x2="420" y2="180" gradientUnits="userSpaceOnUse" id="color-1"><stop offset="0" stop-color="#9966ff"/><stop offset="1" stop-color="#66ebff"/></linearGradient><linearGradient x1="142.69315" y1="180" x2="373.68325" y2="180" gradientUnits="userSpaceOnUse" id="color-2"><stop offset="0" stop-color="#9966ff"/><stop offset="1" stop-color="#66ebff"/></linearGradient><linearGradient x1="168.64865" y1="180" x2="311.35135" y2="180" gradientUnits="userSpaceOnUse" id="color-3"><stop offset="0" stop-color="#9966ff"/><stop offset="1" stop-color="#66ebff"/></linearGradient></defs><g transform="translate(-60,0)"><g data-paper-data="{&quot;isPaintingLayer&quot;:true}" fill-rule="nonzero" stroke-linecap="butt" stroke-linejoin="miter" stroke-miterlimit="10" stroke-dasharray="" stroke-dashoffset="0" style="mix-blend-mode: normal"><path d="M60,180c0,-99.41125 80.58875,-180 180,-180c99.41125,0 180,80.58875 180,180c0,99.41125 -80.58875,180 -180,180c-99.41125,0 -180,-80.58875 -180,-180z" fill="url(#color-1)" stroke="#000000" stroke-width="0"/><path d="M142.69315,203.34152v-46.68304h230.9901v46.68304z" fill="url(#color-2)" stroke="#ffffff" stroke-width="10"/><path d="M168.64865,180c0,-39.40626 31.94509,-71.35135 71.35135,-71.35135c39.40626,0 71.35135,31.94509 71.35135,71.35135c0,39.40626 -31.94509,71.35135 -71.35135,71.35135c-39.40626,0 -71.35135,-31.94509 -71.35135,-71.35135z" fill="url(#color-3)" stroke="#ffffff" stroke-width="10"/></g></g></svg>